<svg xmlns="http://www.w3.org/2000/svg" width="13" height="24" viewBox="0 0 13 24">
  <g id="arrows" transform="translate(-998 -290)">
    <path id="Polygon_1" data-name="Polygon 1" d="M5.662,1.29a1,1,0,0,1,1.677,0L12,8.455A1,1,0,0,1,11.157,10H1.843A1,1,0,0,1,1,8.455Z" transform="translate(998 290)" fill="#cdcdcd"/>
    <path id="Polygon_2" data-name="Polygon 2" d="M5.662,1.29a1,1,0,0,1,1.677,0L12,8.455A1,1,0,0,1,11.157,10H1.843A1,1,0,0,1,1,8.455Z" transform="translate(1011 314) rotate(180)" fill="#cdcdcd"/>
  </g>
</svg>
