<svg xmlns="http://www.w3.org/2000/svg" width="14.289" height="20" viewBox="0 0 14.289 20">
  <path id="bulb" d="M363.253.123a7.147,7.147,0,0,0-2.707,13.187l.125.076,0,.924c0,.822,0,.933.017,1a1.436,1.436,0,0,0,1.317,1.212c.133.01,4.349.01,4.483,0a1.437,1.437,0,0,0,1.317-1.212c.012-.071.014-.183.017-1l0-.924.113-.068A7.313,7.313,0,0,0,369,12.543c.136-.119.518-.5.637-.641a7.135,7.135,0,0,0,1.564-3.03,7.253,7.253,0,0,0,.1-2.811,7.147,7.147,0,0,0-1.139-2.869,7.146,7.146,0,0,0-3.29-2.639,7.163,7.163,0,0,0-1.721-.442C365.077.1,364.927.1,364.233.1H363.4l-.152.022m.784,1.366a5.714,5.714,0,0,0-5.473,5.128,5.323,5.323,0,0,0-.029.584,5.713,5.713,0,0,0,3.037,5.045,1.078,1.078,0,0,1,.327.211.733.733,0,0,1,.193.369c.01.053.012.226.012,1.169V15.1h4.289V14c0-.944,0-1.117.012-1.169a.733.733,0,0,1,.194-.369.962.962,0,0,1,.291-.191,5.753,5.753,0,0,0,.824-.519,6.027,6.027,0,0,0,.978-.946,5.759,5.759,0,0,0,1.045-2,5.493,5.493,0,0,0,.223-1.494,5.582,5.582,0,0,0-.311-1.975,5.718,5.718,0,0,0-3.4-3.487,5.781,5.781,0,0,0-2.209-.356M361.3,18.68a.678.678,0,0,0-.43.22.657.657,0,0,0-.194.492.882.882,0,0,0,.013.151.732.732,0,0,0,.5.535l.072.022h5.977l.072-.022a.741.741,0,0,0,.465-.429.782.782,0,0,0,0-.52.742.742,0,0,0-.508-.439c-.048-.012-.286-.013-2.981-.015-1.611,0-2.952,0-2.981,0" transform="translate(-357.104 -0.1)" fill="#fff" fill-rule="evenodd"/>
</svg>
