<svg xmlns="http://www.w3.org/2000/svg" width="48" height="48" viewBox="0 0 2500 2500" version="1.1">
	<path d="M 1235.246 259.071 C 1201.986 262.286, 1167.630 282.191, 1146.477 310.500 C 1143.600 314.350, 1026.154 481.975, 885.486 683 C 744.819 884.025, 629.545 1048.706, 629.323 1048.957 C 629.101 1049.208, 535.225 955.784, 420.710 841.349 C 306.194 726.913, 209.800 631.262, 206.500 628.789 C 186.711 613.965, 165.762 606.101, 140.596 604.049 C 101.046 600.826, 66.197 613.439, 38.404 641.037 C 19.834 659.476, 7.957 681.512, 2.312 708 C 0.575 716.150, 0.500 740.517, 0.500 1300 C 0.500 1857.341, 0.581 1884.128, 2.311 1897.500 C 8.883 1948.315, 21.385 1988.952, 43.832 2032.457 C 77.693 2098.087, 130.791 2153.313, 196 2190.723 C 224.683 2207.178, 257.554 2220.480, 290.662 2229.029 C 319.092 2236.370, 341.585 2239.596, 374.132 2241.001 C 404.512 2242.312, 2095.488 2242.312, 2125.868 2241.001 C 2158.415 2239.596, 2180.908 2236.370, 2209.338 2229.029 C 2242.446 2220.480, 2275.317 2207.178, 2304 2190.723 C 2411.748 2128.908, 2482.643 2021.671, 2497.501 1898.030 C 2498.326 1891.171, 2499 1883.210, 2499 1880.339 C 2499 1877.467, 2499.450 1874.840, 2500 1874.500 C 2501.268 1873.716, 2501.398 719, 2500.129 719 C 2499.650 719, 2498.960 716.365, 2498.596 713.145 C 2497.688 705.119, 2493.646 690.410, 2489.986 681.808 C 2478.655 655.181, 2455.444 630.684, 2428.349 616.756 C 2411.127 607.903, 2392.837 603.758, 2371 603.758 C 2342.258 603.758, 2317.042 611.853, 2294.585 628.291 C 2288.956 632.411, 2223.408 697.269, 2078.790 841.811 C 1964.550 955.992, 1870.899 1049.208, 1870.677 1048.957 C 1870.455 1048.706, 1755.181 884.025, 1614.514 683 C 1473.846 481.975, 1356.250 314.125, 1353.190 310 C 1331.087 280.204, 1299.084 262.716, 1260 259.078 C 1247.447 257.909, 1247.262 257.909, 1235.246 259.071 M 998.500 972.754 C 728.345 1358.811, 740.294 1342.267, 722.197 1355.297 C 703.391 1368.837, 681.368 1376.670, 655.876 1378.884 C 626.109 1381.469, 599.858 1374.400, 573.500 1356.702 C 565.771 1351.513, 542.926 1329.111, 411.742 1198.082 L 258.983 1045.505 259.265 1459.003 C 259.534 1854.608, 259.625 1872.825, 261.363 1880 C 274.296 1933.399, 313.155 1970.693, 366.364 1980.770 C 374.981 1982.402, 425.143 1982.500, 1250 1982.500 C 2074.857 1982.500, 2125.019 1982.402, 2133.636 1980.770 C 2160.893 1975.608, 2183.273 1964.060, 2202.428 1945.275 C 2220.441 1927.610, 2232.272 1906.282, 2238.637 1880 C 2240.375 1872.825, 2240.466 1854.609, 2240.735 1459 L 2241.016 1045.500 2089.258 1197.104 C 2005.791 1280.486, 1934.800 1350.725, 1931.500 1353.190 C 1907.229 1371.320, 1884.037 1378.992, 1853.500 1378.992 C 1815.810 1378.992, 1784.383 1365.473, 1759.073 1338.371 C 1754.596 1333.577, 1665.894 1207.665, 1501.373 972.566 C 1363.393 775.394, 1250.275 614.071, 1250 614.071 C 1249.725 614.071, 1136.550 775.479, 998.500 972.754 M 0.497 1297.500 C 0.497 1615.400, 0.611 1745.301, 0.750 1586.168 C 0.889 1427.035, 0.889 1166.935, 0.750 1008.168 C 0.611 849.401, 0.497 979.600, 0.497 1297.500" stroke="none" fill="#000000" fill-rule="evenodd"></path>
</svg>