<svg xmlns="http://www.w3.org/2000/svg" width="14.293" height="20" viewBox="0 0 14.293 20">
  <path id="door-icon" d="M358.948.416a2.225,2.225,0,0,0-.862.259,2.151,2.151,0,0,0-1.1,1.7c-.011.128-.011,15.957,0,16.085a2.151,2.151,0,0,0,1.258,1.774,2.432,2.432,0,0,0,.61.172c.107.015,10.433.015,10.539,0a2.249,2.249,0,0,0,.76-.248,2.151,2.151,0,0,0,1.108-1.7c.011-.128.011-15.957,0-16.085a2.15,2.15,0,0,0-.944-1.6,2.192,2.192,0,0,0-.888-.343c-.08-.014-.317-.014-5.266-.015-2.85,0-5.2,0-5.214,0m.028,1.439a.725.725,0,0,0-.542.5l-.022.072V18.4l.022.072a.74.74,0,0,0,.273.378.663.663,0,0,0,.21.1l.07.022h10.267l.07-.022a.663.663,0,0,0,.21-.1.739.739,0,0,0,.273-.378l.022-.072,0-7.954c0-5.391,0-7.972-.006-8.008a.732.732,0,0,0-.525-.58c-.045-.014-.276-.014-5.161-.016-4.239,0-5.122,0-5.166.009m6.478,8.563-.06.012a.73.73,0,0,0-.5.4.627.627,0,0,0-.059.286.641.641,0,0,0,.052.289.742.742,0,0,0,.449.406,4.162,4.162,0,0,0,.986.031l.76,0,.077-.021a.733.733,0,0,0,.484-.431.782.782,0,0,0,0-.52.742.742,0,0,0-.465-.429l-.072-.022h-.82c-.451,0-.827,0-.836,0" transform="translate(-356.975 -0.414)" fill="#fff" fill-rule="evenodd"/>
</svg>
