<svg xmlns="http://www.w3.org/2000/svg" width="159.534" height="40.886" viewBox="0 0 159.534 40.886">
  <g id="logo" transform="translate(-89.105 -199.465)">
    <g id="Group_45" data-name="Group 45" transform="translate(89.105 199.465)">
      <path id="Path_12" data-name="Path 12" d="M122.551,213.609,109.6,200.655l-.078-.072a4.631,4.631,0,0,0-5.942-.078l-13.12,13.1a4.6,4.6,0,0,0-1.356,3.274v18.838a4.635,4.635,0,0,0,4.63,4.63h25.544a4.635,4.635,0,0,0,4.63-4.63V216.882A4.6,4.6,0,0,0,122.551,213.609Zm-1.517,22.112a1.758,1.758,0,0,1-1.756,1.756H93.735a1.758,1.758,0,0,1-1.756-1.756V216.882a1.745,1.745,0,0,1,.515-1.241l12.564-12.561c.019-.019.041-.042.066-.069l.3-.3a1.8,1.8,0,0,1,2.192.017l12.907,12.91a1.745,1.745,0,0,1,.515,1.241Z" transform="translate(-89.105 -199.465)" fill="#fff"/>
      <path id="Path_13" data-name="Path 13" d="M118.934,249.449a7.122,7.122,0,0,0-5.2,2.268,1.437,1.437,0,0,0,2.148,1.91,4.221,4.221,0,0,1,6.1,0,1.437,1.437,0,1,0,2.148-1.91A7.127,7.127,0,0,0,118.934,249.449Z" transform="translate(-101.532 -225.06)" fill="#fff"/>
      <path id="Path_14" data-name="Path 14" d="M115.65,239.547a11.072,11.072,0,0,0-8.261,3.529,1.437,1.437,0,0,0,2.033,2.031,8.57,8.57,0,0,1,12.463,0,1.437,1.437,0,0,0,2.033-2.031A11.078,11.078,0,0,0,115.65,239.547Z" transform="translate(-98.252 -219.989)" fill="#fff"/>
      <path id="Path_15" data-name="Path 15" d="M112.326,229.651a15.274,15.274,0,0,0-11.31,4.571,1.437,1.437,0,1,0,2.048,2.016,12.339,12.339,0,0,1,9.263-3.713,12.67,12.67,0,0,1,9.4,3.713,1.437,1.437,0,1,0,2.048-2.016A15.445,15.445,0,0,0,112.326,229.651Z" transform="translate(-94.993 -214.922)" fill="#fff"/>
      <path id="Path_16" data-name="Path 16" d="M122.173,258.643a2.472,2.472,0,1,0,2.472,2.472A2.475,2.475,0,0,0,122.173,258.643Z" transform="translate(-104.772 -229.768)" fill="#fff"/>
    </g>
    <g id="Group_46" data-name="Group 46" transform="translate(133.992 213.335)">
      <path id="Path_17" data-name="Path 17" d="M190.585,242.972a3.339,3.339,0,0,1-.445,4.5,4.7,4.7,0,0,1-3.111.934H181.1V235.67h5.732a4.7,4.7,0,0,1,3.038.889,3.224,3.224,0,0,1,.508,4.282,3.048,3.048,0,0,1-1.569,1.034A2.965,2.965,0,0,1,190.585,242.972Zm-6.386-2.149h2.032a1.8,1.8,0,0,0,1.17-.336,1.205,1.205,0,0,0,.408-.989,1.232,1.232,0,0,0-.408-1,1.768,1.768,0,0,0-1.17-.345H184.2Zm3.492,4.726a1.258,1.258,0,0,0,.426-1.025,1.312,1.312,0,0,0-.445-1.052,1.822,1.822,0,0,0-1.225-.381H184.2V245.9h2.286A1.842,1.842,0,0,0,187.692,245.548Z" transform="translate(-181.098 -233.874)" fill="#fff"/>
      <path id="Path_18" data-name="Path 18" d="M210.06,241.282a3.514,3.514,0,0,1,1.814-.481v3.283h-.852a2.614,2.614,0,0,0-1.741.5,2.215,2.215,0,0,0-.581,1.751v4.7h-3.1V240.909h3.1V242.6A4.093,4.093,0,0,1,210.06,241.282Z" transform="translate(-193.644 -236.502)" fill="#fff"/>
      <path id="Path_19" data-name="Path 19" d="M220.835,243.175a4.391,4.391,0,0,1,1.605-1.814,4.194,4.194,0,0,1,2.267-.635,3.89,3.89,0,0,1,1.878.436,3.211,3.211,0,0,1,1.243,1.143v-1.434h3.1v10.123h-3.1v-1.433a3.359,3.359,0,0,1-1.261,1.143,3.9,3.9,0,0,1-1.878.435,4.114,4.114,0,0,1-2.249-.644,4.445,4.445,0,0,1-1.605-1.833,6.674,6.674,0,0,1,0-5.487Zm6.349.925a2.18,2.18,0,0,0-3.138-.009,2.5,2.5,0,0,0-.644,1.823,2.568,2.568,0,0,0,.644,1.841,2.16,2.16,0,0,0,3.138.009,2.928,2.928,0,0,0,0-3.664Z" transform="translate(-201.144 -236.463)" fill="#fff"/>
      <path id="Path_20" data-name="Path 20" d="M246.675,234.865a1.559,1.559,0,0,1-.517-1.189,1.579,1.579,0,0,1,.517-1.206,1.882,1.882,0,0,1,1.334-.481,1.859,1.859,0,0,1,1.315.481,1.579,1.579,0,0,1,.517,1.206,1.559,1.559,0,0,1-.517,1.189,1.857,1.857,0,0,1-1.315.481A1.88,1.88,0,0,1,246.675,234.865Zm2.875,1.532V246.52h-3.1V236.4Z" transform="translate(-214.413 -231.99)" fill="#fff"/>
      <path id="Path_21" data-name="Path 21" d="M266.727,241.953a4.493,4.493,0,0,1,1.061,3.166v5.913H264.7v-5.5a2.222,2.222,0,0,0-.526-1.578,2.063,2.063,0,0,0-2.83,0,2.224,2.224,0,0,0-.526,1.578v5.5h-3.1V240.909h3.1v1.343a3.275,3.275,0,0,1,1.27-1.061,4.041,4.041,0,0,1,1.8-.39A3.674,3.674,0,0,1,266.727,241.953Z" transform="translate(-220.333 -236.502)" fill="#fff"/>
      <path id="Path_22" data-name="Path 22" d="M291.918,241.023l-6.349,14.93h-3.338l2.322-5.153-4.118-9.778H283.9l2.34,6.331,2.322-6.331Z" transform="translate(-231.965 -236.615)" fill="#fff"/>
      <path id="Path_23" data-name="Path 23" d="M317.3,235.67V248.4h-3.1v-5.242h-4.825V248.4h-3.1V235.67h3.1v4.989H314.2V235.67Z" transform="translate(-245.195 -233.874)" fill="#fff"/>
      <path id="Path_24" data-name="Path 24" d="M334.735,250.5a4.646,4.646,0,0,1-1.869-1.814,5.875,5.875,0,0,1,.009-5.505,4.676,4.676,0,0,1,1.886-1.823,5.991,5.991,0,0,1,5.37,0,4.683,4.683,0,0,1,1.887,1.823,5.381,5.381,0,0,1,.689,2.749,5.321,5.321,0,0,1-.7,2.748,4.726,4.726,0,0,1-1.9,1.823,5.693,5.693,0,0,1-2.694.635A5.582,5.582,0,0,1,334.735,250.5Zm4.19-2.7a2.594,2.594,0,0,0,.626-1.868,2.642,2.642,0,0,0-.607-1.868,2.062,2.062,0,0,0-3-.01,2.664,2.664,0,0,0-.6,1.878,2.7,2.7,0,0,0,.589,1.868,1.908,1.908,0,0,0,1.479.653A2.022,2.022,0,0,0,338.925,247.8Z" transform="translate(-258.464 -236.463)" fill="#fff"/>
      <path id="Path_25" data-name="Path 25" d="M373.051,241.944a4.352,4.352,0,0,1,1.115,3.175v5.913h-3.084v-5.5a2.09,2.09,0,0,0-.517-1.515,2.163,2.163,0,0,0-2.848,0,2.091,2.091,0,0,0-.517,1.515v5.5h-3.084v-5.5a2.091,2.091,0,0,0-.517-1.515,2.163,2.163,0,0,0-2.848,0,2.09,2.09,0,0,0-.517,1.515v5.5h-3.1V240.909h3.1v1.27a3.326,3.326,0,0,1,1.233-1.007,3.88,3.88,0,0,1,1.723-.372,4.2,4.2,0,0,1,2.041.49,3.508,3.508,0,0,1,1.406,1.4,4.067,4.067,0,0,1,1.434-1.361,3.874,3.874,0,0,1,1.977-.526A4.006,4.006,0,0,1,373.051,241.944Z" transform="translate(-271.238 -236.502)" fill="#fff"/>
      <path id="Path_26" data-name="Path 26" d="M405.343,246.676h-7.02a2.107,2.107,0,0,0,.608,1.442,1.854,1.854,0,0,0,1.315.5,1.63,1.63,0,0,0,1.615-.979h3.3a4.544,4.544,0,0,1-.916,1.8,4.593,4.593,0,0,1-1.66,1.252,5.329,5.329,0,0,1-2.231.453,5.427,5.427,0,0,1-2.649-.635,4.516,4.516,0,0,1-1.814-1.814,5.6,5.6,0,0,1-.653-2.757,5.663,5.663,0,0,1,.644-2.757,4.452,4.452,0,0,1,1.8-1.814,5.878,5.878,0,0,1,5.279-.019,4.429,4.429,0,0,1,1.786,1.76,5.34,5.34,0,0,1,.645,2.667A7.966,7.966,0,0,1,405.343,246.676Zm-3.12-1.723a1.6,1.6,0,0,0-.544-1.27,2.006,2.006,0,0,0-1.36-.471,1.964,1.964,0,0,0-1.315.454,2.013,2.013,0,0,0-.662,1.288Z" transform="translate(-290.751 -236.463)" fill="#fff"/>
    </g>
  </g>
</svg>
