<svg xmlns="http://www.w3.org/2000/svg" width="8.573" height="20" viewBox="0 0 8.573 20">
  <path id="thermostat" d="M718.3.415c-.12.012-.212.023-.292.037a2.868,2.868,0,0,0-2.347,2.436L715.646,3l0,4.967,0,4.967-.114.11a4.289,4.289,0,0,0,2.407,7.338,4.973,4.973,0,0,0,1.136,0,4.29,4.29,0,0,0,3.629-3.372,3.9,3.9,0,0,0,.088-.876,3.5,3.5,0,0,0-.04-.6,4.28,4.28,0,0,0-1.27-2.485l-.114-.11,0-4.967a49.576,49.576,0,0,0-.044-5.214,2.915,2.915,0,0,0-.317-.88A2.873,2.873,0,0,0,719.067.466a2.437,2.437,0,0,0-.52-.051c-.117,0-.227,0-.244,0m0,1.44a1.434,1.434,0,0,0-1.019.667,1.528,1.528,0,0,0-.191.5c-.012.055-.013.53-.017,5.206l0,5.146-.018.067a.874.874,0,0,1-.117.252,1.115,1.115,0,0,1-.225.215,2.855,2.855,0,0,0,1.219,5.024,3.11,3.11,0,0,0,1.139,0,2.856,2.856,0,0,0,1.654-4.591,3.34,3.34,0,0,0-.43-.43,1.117,1.117,0,0,1-.229-.217.873.873,0,0,1-.117-.252l-.018-.067,0-5.146c0-4.676-.006-5.151-.017-5.206a1.435,1.435,0,0,0-.4-.759,1.419,1.419,0,0,0-.818-.405,1.752,1.752,0,0,0-.386,0" transform="translate(-714.211 -0.414)" fill="#fff" fill-rule="evenodd"/>
</svg>
